<?xml version="1.0" encoding="utf-8"?>
<svg xmlns="http://www.w3.org/2000/svg" xmlns:svg="http://www.w3.org/2000/svg" version="1.1" viewBox="0 0 1400 440">
	<title>The titlepage for the Standard Ebooks edition of An Occurrence at Owl Creek Bridge, by Ambrose Bierce</title>
	<g aria-label="AN OCCURRENCE AT">
		<path d="m 204.02923,52.807016 h -16.2807 L 156.59063,130 h 18.90059 l 5.7076,-15.4386 h 29.38012 L 216.28654,130 h 18.90059 z m 0.56141,46.31579 h -17.40351 l 8.60818,-22.45614 h 0.18714 z"/>
		<path d="m 260.69736,82.093566 h 0.18714 L 291.57456,130 H 309.1652 V 52.807016 h -17.59064 v 47.906434 h -0.18714 L 260.69736,52.807016 H 243.10672 V 130 h 17.59064 z"/>
		<path d="m 352.53217,91.356724 c 0,22.549706 16.09356,40.046786 38.92397,40.046786 22.17544,0 38.83041,-17.49708 38.83041,-40.046786 0,-22.549708 -17.40351,-39.953217 -38.83041,-39.953217 -21.23976,0 -38.92397,17.403509 -38.92397,39.953217 z m 18.99415,0 c 0,-11.508772 6.36257,-23.017544 19.92982,-23.017544 13.66082,0 19.83626,11.508772 19.83626,23.017544 0,11.508776 -5.80117,23.017546 -19.83626,23.017546 -14.40935,0 -19.92982,-11.50877 -19.92982,-23.017546 z"/>
		<path d="m 484.12427,114.09357 c -17.68421,0 -25.45029,-12.35088 -25.45029,-22.736846 0,-10.292397 7.76608,-22.643275 25.45029,-22.643275 8.98246,0 15.1579,4.77193 15.1579,4.77193 l 7.48538,-14.97076 c 0,0 -8.60819,-7.111112 -25.35673,-7.111112 -21.89474,0 -41.82456,17.964913 -41.82456,40.140352 0,22.081871 20.02339,39.859651 41.82456,39.859651 16.74854,0 25.35673,-7.11111 25.35673,-7.11111 l -7.48538,-14.97076 c 0,0 -6.17544,4.77193 -15.1579,4.77193 z"/>
		<path d="m 559.66519,114.09357 c -17.68421,0 -25.45029,-12.35088 -25.45029,-22.736846 0,-10.292397 7.76608,-22.643275 25.45029,-22.643275 8.98246,0 15.1579,4.77193 15.1579,4.77193 l 7.48538,-14.97076 c 0,0 -8.60819,-7.111112 -25.35673,-7.111112 -21.89473,0 -41.82456,17.964913 -41.82456,40.140352 0,22.081871 20.02339,39.859651 41.82456,39.859651 16.74854,0 25.35673,-7.11111 25.35673,-7.11111 l -7.48538,-14.97076 c 0,0 -6.17544,4.77193 -15.1579,4.77193 z"/>
		<path d="m 653.45176,52.807016 h -17.59064 v 44.63158 c 0,12.912284 -3.92982,16.654974 -12.53801,16.654974 -8.60819,0 -12.53801,-3.74269 -12.53801,-16.654974 v -44.63158 h -17.59065 v 49.777774 c 0,19.08772 10.47953,28.81872 30.12866,28.81872 19.64912,0 30.12865,-9.731 30.12865,-28.81872 z"/>
		<path d="M 668.75732,52.807016 V 130 h 17.59065 V 99.497075 L 709.92691,130 h 22.36258 l -26.5731,-31.906433 c 9.45029,-2.994152 15.81286,-10.760234 15.81286,-22.362574 0,-15.157895 -10.8538,-22.923977 -25.16959,-22.923977 z m 17.59065,34.245615 V 66.842104 h 2.05848 c 6.64327,0 14.59649,0.467836 14.59649,10.105263 0,9.637428 -7.95322,10.105264 -14.59649,10.105264 z"/>
		<path d="M 740.82602,52.807016 V 130 h 17.59064 V 99.497075 L 781.99561,130 h 22.36257 l -26.5731,-31.906433 c 9.4503,-2.994152 15.81287,-10.760234 15.81287,-22.362574 0,-15.157895 -10.8538,-22.923977 -25.16959,-22.923977 z m 17.59064,34.245615 V 66.842104 h 2.05848 c 6.64328,0 14.59649,0.467836 14.59649,10.105263 0,9.637428 -7.95321,10.105264 -14.59649,10.105264 z"/>
		<path d="M 857.05849,52.807016 H 812.89474 V 130 h 44.16375 v -15.4386 h -26.5731 V 99.029239 h 25.45029 V 83.590642 H 830.48539 V 68.245613 h 26.5731 z"/>
		<path d="m 889.76169,82.093566 h 0.18714 L 920.63889,130 h 17.59064 V 52.807016 h -17.59064 v 47.906434 h -0.18714 L 889.76169,52.807016 H 872.17105 V 130 h 17.59064 z"/>
		<path d="m 992.62574,114.09357 c -17.68422,0 -25.4503,-12.35088 -25.4503,-22.736846 0,-10.292397 7.76608,-22.643275 25.4503,-22.643275 8.98246,0 15.15786,4.77193 15.15786,4.77193 l 7.4854,-14.97076 c 0,0 -8.6082,-7.111112 -25.35671,-7.111112 -21.89474,0 -41.82457,17.964913 -41.82457,40.140352 0,22.081871 20.0234,39.859651 41.82457,39.859651 16.74851,0 25.35671,-7.11111 25.35671,-7.11111 l -7.4854,-14.97076 c 0,0 -6.1754,4.77193 -15.15786,4.77193 z"/>
		<path d="m 1071.2544,52.807016 h -44.1637 V 130 h 44.1637 v -15.4386 h -26.5731 V 99.029239 h 25.4503 V 83.590642 h -25.4503 V 68.245613 h 26.5731 z"/>
		<path d="m 1156.1564,52.807016 h -16.2807 L 1108.7178,130 h 18.9006 l 5.7076,-15.4386 h 29.3801 L 1168.4137,130 h 18.9006 z m 0.5614,46.31579 h -17.4035 l 8.6082,-22.45614 h 0.1871 z"/>
		<path d="m 1185.7998,68.245613 h 18.3391 V 130 h 17.5907 V 68.245613 h 18.3392 V 52.807016 h -54.269 z"/>
	</g>
	<g aria-label="OWL CREEK BRIDGE">
		<path d="m 182.65277,191.35672 c 0,22.54971 16.09357,40.04679 38.92398,40.04679 22.17544,0 38.83041,-17.49708 38.83041,-40.04679 0,-22.5497 -17.40351,-39.95321 -38.83041,-39.95321 -21.23977,0 -38.92398,17.40351 -38.92398,39.95321 z m 18.99415,0 c 0,-11.50877 6.36257,-23.01754 19.92983,-23.01754 13.66082,0 19.83625,11.50877 19.83625,23.01754 0,11.50878 -5.80117,23.01755 -19.83625,23.01755 -14.40936,0 -19.92983,-11.50877 -19.92983,-23.01755 z"/>
		<path d="m 329.47295,230 h 19.46199 l 21.9883,-77.19298 h -19.46199 l -13.19298,52.95906 h -0.46784 L 323.76535,152.80702 H 310.4788 l -14.03509,52.95906 h -0.46784 L 282.78289,152.80702 H 263.22733 L 285.21564,230 h 19.55555 l 12.35088,-43.32164 z"/>
		<path d="M 397.73317,152.80702 H 380.14253 V 230 h 44.16374 v -15.4386 h -26.5731 z"/>
		<path d="m 506.69371,214.09357 c -17.68421,0 -25.45029,-12.35088 -25.45029,-22.73685 0,-10.29239 7.76608,-22.64327 25.45029,-22.64327 8.98246,0 15.1579,4.77193 15.1579,4.77193 l 7.48538,-14.97076 c 0,0 -8.60819,-7.11111 -25.35673,-7.11111 -21.89474,0 -41.82456,17.96491 -41.82456,40.14035 0,22.08187 20.02339,39.85965 41.82456,39.85965 16.74854,0 25.35673,-7.11111 25.35673,-7.11111 l -7.48538,-14.97076 c 0,0 -6.17544,4.77193 -15.1579,4.77193 z"/>
		<path d="M 541.15861,152.80702 V 230 h 17.59065 V 199.49708 L 582.3282,230 h 22.36258 l -26.5731,-31.90643 c 9.45029,-2.99416 15.81286,-10.76024 15.81286,-22.36258 0,-15.15789 -10.8538,-22.92397 -25.16959,-22.92397 z m 17.59065,34.24561 V 166.8421 h 2.05847 c 6.64328,0 14.5965,0.46784 14.5965,10.10527 0,9.63742 -7.95322,10.10526 -14.5965,10.10526 z"/>
		<path d="M 657.39108,152.80702 H 613.22734 V 230 h 44.16374 v -15.4386 h -26.5731 v -15.53216 h 25.45029 v -15.4386 h -25.45029 v -15.34503 h 26.5731 z"/>
		<path d="M 716.66742,152.80702 H 672.50367 V 230 h 44.16375 v -15.4386 h -26.5731 v -15.53216 h 25.45029 v -15.4386 h -25.45029 v -15.34503 h 26.5731 z"/>
		<path d="m 802.04899,230 -35.92983,-40.60819 31.06433,-36.58479 h -21.33333 l -26.47954,31.53216 V 152.80702 H 731.77998 V 230 h 17.59064 V 197.25146 L 777.81507,230 Z"/>
		<path d="M 841.0124,152.80702 V 230 h 29.28655 c 16,0 25.26316,-8.79532 25.26316,-21.52047 0,-12.44444 -6.83041,-17.77778 -16.46784,-19.46199 6.54971,-3.36842 9.63743,-9.45029 9.63743,-16.5614 0,-14.69006 -10.47953,-19.64912 -23.76608,-19.64912 z m 17.59065,30.22222 v -16.65497 h 1.4035 c 7.67252,0 11.69591,2.33918 11.69591,7.85965 0,6.45614 -4.11696,8.79532 -11.69591,8.79532 z m 0,33.40351 v -18.24562 h 5.52046 c 8.32749,0 12.91228,2.52632 12.91228,9.63743 0,6.08187 -4.58479,8.60819 -12.91228,8.60819 z"/>
		<path d="M 908.32966,152.80702 V 230 h 17.59065 V 199.49708 L 949.49925,230 h 22.36258 l -26.5731,-31.90643 c 9.45029,-2.99416 15.81286,-10.76024 15.81286,-22.36258 0,-15.15789 -10.8538,-22.92397 -25.16959,-22.92397 z m 17.59065,34.24561 V 166.8421 h 2.05848 c 6.64327,0 14.59649,0.46784 14.59649,10.10527 0,9.63742 -7.95322,10.10526 -14.59649,10.10526 z"/>
		<path d="M 997.98903,152.80702 H 980.39839 V 230 h 17.59064 z"/>
		<path d="M 1014.2727,152.80702 V 230 h 22.3625 c 21.2398,0 38.924,-16.09357 38.924,-38.64328 0,-22.45614 -17.7778,-38.5497 -38.924,-38.5497 z m 17.5906,61.47368 v -45.75439 h 2.7134 c 13.0995,0 21.9884,10.0117 21.9884,22.92398 -0.094,12.91228 -8.9825,22.83041 -21.9884,22.83041 z"/>
		<path d="m 1158.1528,186.77193 h -35.6491 v 13.56725 h 17.7778 c 0,9.45029 -8.3275,14.87719 -16.7486,14.87719 -10.8538,0 -19.6491,-10.66666 -19.6491,-23.76608 0,-13.38012 8.7953,-24.14035 19.6491,-24.14035 6.8304,0 12.7252,2.71345 17.2164,9.91813 l 11.5088,-12.63158 c -6.7369,-8.14035 -16.1872,-13.19298 -29.7544,-13.19298 -21.7076,0 -37.6141,17.87134 -37.6141,40.04678 0,22.08187 16.8422,39.95322 37.6141,39.95322 15.1579,0 31.4386,-8.32749 35.6491,-27.88304 z"/>
		<path d="M 1215.0007,152.80702 H 1170.837 V 230 h 44.1637 v -15.4386 h -26.5731 v -15.53216 h 25.4503 v -15.4386 h -25.4503 v -15.34503 h 26.5731 z"/>
	</g>
	<g aria-label="AMBROSE BIERCE">
		<path d="M 381.14419,332.10526 H 368.93367 L 345.56524,390 h 14.17544 l 4.2807,-11.57895 h 22.03509 L 390.33717,390 h 14.17544 z m 0.42105,34.73685 H 368.51261 L 374.96875,350 h 0.14035 z"/>
		<path d="m 459.56196,390 h 13.19298 l -5.19298,-57.89474 h -14.03509 l -12.84211,33.40351 -12.8421,-33.40351 H 413.80757 L 408.61459,390 h 13.19298 l 2.73684,-34.31579 h 0.35088 l 11.85965,33.96491 h 7.85965 l 11.85965,-33.96491 h 0.35087 z"/>
		<path d="M 483.04003,332.10526 V 390 h 21.96491 c 12,0 18.94737,-6.59649 18.94737,-16.14035 0,-9.33333 -5.12281,-13.33333 -12.35088,-14.59649 4.91228,-2.52632 7.22807,-7.08772 7.22807,-12.42105 0,-11.01755 -7.85965,-14.73685 -17.82456,-14.73685 z m 13.19298,22.66667 V 342.2807 h 1.05263 c 5.75439,0 8.77193,1.75439 8.77193,5.89474 0,4.8421 -3.08772,6.59649 -8.77193,6.59649 z m 0,25.05263 v -13.68421 h 4.14035 c 6.24562,0 9.68421,1.89474 9.68421,7.22807 0,4.5614 -3.43859,6.45614 -9.68421,6.45614 z"/>
		<path d="M 534.77796,332.10526 V 390 h 13.19298 V 367.12281 L 565.65515,390 h 16.77193 l -19.92982,-23.92982 c 7.08772,-2.24562 11.85965,-8.07018 11.85965,-16.77193 0,-11.36842 -8.14035,-17.19299 -18.8772,-17.19299 z m 13.19298,25.68421 v -15.15789 h 1.54386 c 4.98246,0 10.94737,0.35088 10.94737,7.57895 0,7.22807 -5.96491,7.57894 -10.94737,7.57894 z"/>
		<path d="m 587.483,361.01754 c 0,16.91228 12.07017,30.03509 29.19298,30.03509 16.63158,0 29.12281,-13.12281 29.12281,-30.03509 0,-16.91228 -13.05263,-29.96491 -29.12281,-29.96491 -15.92982,0 -29.19298,13.05263 -29.19298,29.96491 z m 14.24561,0 c 0,-8.63157 4.77193,-17.26315 14.94737,-17.26315 10.24561,0 14.87719,8.63158 14.87719,17.26315 0,8.63158 -4.35087,17.26316 -14.87719,17.26316 -10.80702,0 -14.94737,-8.63158 -14.94737,-17.26316 z"/>
		<path d="m 677.95341,331.05263 c -9.33333,0 -18.87719,6.8772 -18.87719,17.68421 0,6.03509 4.07017,11.4386 11.01754,14.8772 6.87719,3.43859 13.05263,5.33333 13.05263,9.54385 0,5.40351 -5.47368,5.68422 -8.35087,5.68422 -6.45614,0 -14.17544,-6.52632 -14.17544,-6.52632 l -6.59649,11.08772 c 0,0 8.21052,7.64912 21.75438,7.64912 11.29825,0 21.82456,-4.8421 21.82456,-18.66666 0,-7.57895 -7.08772,-13.05264 -13.54386,-15.78948 -6.59649,-2.80702 -12.07017,-5.12281 -12.07017,-8.35088 0,-3.15789 2.38596,-5.19298 6.87719,-5.19298 5.96491,0 11.7193,4 11.7193,4 l 5.33333,-10.52631 c 0,0 -7.43859,-5.47369 -17.96491,-5.47369 z"/>
		<path d="m 741.89199,332.10526 h -33.1228 V 390 h 33.1228 v -11.57895 h -19.92982 v -11.64912 h 19.08772 v -11.57895 h -19.08772 v -11.50877 h 19.92982 z"/>
		<path d="M 778.66503,332.10526 V 390 h 21.96491 c 12,0 18.94737,-6.59649 18.94737,-16.14035 0,-9.33333 -5.12281,-13.33333 -12.35088,-14.59649 4.91228,-2.52632 7.22807,-7.08772 7.22807,-12.42105 0,-11.01755 -7.85965,-14.73685 -17.82456,-14.73685 z m 13.19298,22.66667 V 342.2807 h 1.05263 c 5.75439,0 8.77193,1.75439 8.77193,5.89474 0,4.8421 -3.08772,6.59649 -8.77193,6.59649 z m 0,25.05263 v -13.68421 h 4.14035 c 6.24562,0 9.68421,1.89474 9.68421,7.22807 0,4.5614 -3.43859,6.45614 -9.68421,6.45614 z"/>
		<path d="M 843.59593,332.10526 H 830.40294 V 390 h 13.19299 z"/>
		<path d="m 890.18145,332.10526 h -33.1228 V 390 h 33.1228 v -11.57895 h -19.92982 v -11.64912 h 19.08772 v -11.57895 h -19.08772 v -11.50877 h 19.92982 z"/>
		<path d="M 902.76589,332.10526 V 390 h 13.19298 V 367.12281 L 933.64308,390 h 16.77193 l -19.92982,-23.92982 c 7.08772,-2.24562 11.85965,-8.07018 11.85965,-16.77193 0,-11.36842 -8.14035,-17.19299 -18.8772,-17.19299 z m 13.19298,25.68421 v -15.15789 h 1.54386 c 4.98246,0 10.94737,0.35088 10.94737,7.57895 0,7.22807 -5.96491,7.57894 -10.94737,7.57894 z"/>
		<path d="m 988.87442,378.07018 c -13.26316,0 -19.08772,-9.26316 -19.08772,-17.05264 0,-7.71929 5.82456,-16.98245 19.08772,-16.98245 6.73684,0 11.36838,3.57895 11.36838,3.57895 l 5.6141,-11.22807 c 0,0 -6.45616,-5.33334 -19.01757,-5.33334 -16.42105,0 -31.36842,13.47369 -31.36842,30.10527 0,16.5614 15.01755,29.89473 31.36842,29.89473 12.56141,0 19.01757,-5.33333 19.01757,-5.33333 l -5.6141,-11.22807 c 0,0 -4.63154,3.57895 -11.36838,3.57895 z"/>
		<path d="m 1049.0959,332.10526 h -33.1228 V 390 h 33.1228 v -11.57895 h -19.9298 v -11.64912 h 19.0877 v -11.57895 h -19.0877 v -11.50877 h 19.9298 z"/>
	</g>
</svg>
